<svg width="15" height="15" viewBox="0 0 15 15" fill="none" xmlns="http://www.w3.org/2000/svg">
<path d="M13.8857 12.951L10.1279 9.11769C10.5711 8.37326 10.8344 7.53227 10.8967 6.66377C10.9583 5.79527 10.8177 4.92415 10.485 4.12201C10.153 3.31993 9.63852 2.60975 8.98471 2.04984C8.3309 1.48985 7.55636 1.09618 6.72401 0.901117C5.85633 0.693867 4.95204 0.708606 4.09142 0.943956C3.23081 1.17937 2.44085 1.628 1.79154 2.25021C1.14223 2.87235 0.653478 3.64869 0.368963 4.50998C0.0850892 5.37127 0.0138003 6.29087 0.162802 7.18687C0.311161 8.08288 0.674675 8.92747 1.22059 9.64565C1.7665 10.3637 2.47811 10.933 3.29248 11.3029C4.1062 11.6726 4.997 11.8316 5.88587 11.7653C6.7741 11.6991 7.63342 11.4097 8.3855 10.923L12.1272 14.7398C12.2127 14.8262 12.3283 14.8748 12.4484 14.8748C12.5685 14.8748 12.6841 14.8262 12.7695 14.7398L13.8819 13.606C13.9666 13.5189 14.0142 13.4012 14.0142 13.2785C14.0142 13.1558 13.9666 13.0381 13.8819 12.951H13.8857ZM8.36944 6.85917C8.2654 7.38712 8.02326 7.87642 7.6681 8.27494C7.31294 8.67346 6.85887 8.96645 6.35342 9.12234C5.84797 9.27831 5.31042 9.29141 4.79855 9.1604C4.28668 9.02946 3.81847 8.75926 3.44532 8.37856C3.07154 7.99793 2.80694 7.5212 2.67784 6.99895C2.54939 6.4767 2.56159 5.92857 2.71445 5.41306C2.8673 4.89756 3.15375 4.434 3.54424 4.07164C3.93472 3.70934 4.41448 3.46181 4.93213 3.35556C5.12288 3.31797 5.3162 3.29897 5.51016 3.2991C5.94175 3.29982 6.36755 3.39814 6.75739 3.58679C7.14724 3.77544 7.49148 4.04983 7.76508 4.39024C8.03868 4.73059 8.23457 5.12846 8.33926 5.5554C8.44395 5.98228 8.45486 6.42757 8.37073 6.85917H8.36944Z" fill="#165975"/>
</svg>
